<svg width="120" height="100" viewBox="0 0 120 100" fill="none" xmlns="http://www.w3.org/2000/svg">
    <g id="triangles">
        <rect width="120" height="100" fill="white" />
        <g id="darkGroup">
            <path id="dark1" opacity="0.7" d="M57 50.768C58.3333 51.5378 58.3333 53.4623 57 54.2321L30.75 69.3875C29.4167 70.1573 27.75 69.195 27.75 67.6554V37.3445C27.75 35.8049 29.4167 34.8427 30.75 35.6125L57 50.768Z" fill="#635BFF" />
            <path id="dark2" opacity="0.7" d="M43 50.768C44.3333 51.5378 44.3333 53.4623 43 54.2321L16.75 69.3875C15.4167 70.1573 13.75 69.195 13.75 67.6554V37.3445C13.75 35.8049 15.4167 34.8427 16.75 35.6125L43 50.768Z" fill="#635BFF" />
        </g>
        <g id="lightGroup">
            <path id="light1" opacity="0.7" d="M43 50.768C44.3333 51.5378 44.3333 53.4623 43 54.2321L16.75 69.3875C15.4167 70.1573 13.75 69.195 13.75 67.6554V37.3445C13.75 35.8049 15.4167 34.8427 16.75 35.6125L43 50.768Z" fill="#43C4ED" />
        </g>
    </g>
</svg>
